<svg id="Слой_1" data-name="Слой 1" xmlns="http://www.w3.org/2000/svg" viewBox="0 0 603 219"><defs><style>.cls-1{fill:#fff;}</style></defs><title>Монтажная область 1</title><path class="cls-1" d="M131.44,84.88q3.45-6.64,8.62-16.57h.32q.09,1.65.66,14.44a161.79,161.79,0,0,0,1.64,19.48,47.43,47.43,0,0,0,3.73,12.88,34.51,34.51,0,0,0,6.77,9.47q8.37,8.79,18.62,8.78,7.3,0,14.6-7.05,4.35-4.35,4.35-6.89,0-1.4-2.62-4a43.9,43.9,0,0,1-5.25-6.24,58.9,58.9,0,0,1-5.5-11.07,113.71,113.71,0,0,1-4.1-16,200,200,0,0,1-2.13-29.86q0-6.23.65-21c.11-1.69.17-3.28.17-4.76,0-1.91-.43-3.14-1.27-3.69s-2.89-.82-6.11-.82q-9.36,0-15.26,2.54A19.34,19.34,0,0,0,146,26.14,12.86,12.86,0,0,0,143.75,28c-.65.69-1.45,1.63-2.38,2.83q-8.69,13.1-28.05,56.75l-1.64,3.69A16.89,16.89,0,0,1,109,85.89q-.9-3.08-2.64-13.62a18.33,18.33,0,0,0-.49-3,5.94,5.94,0,0,0-.08-1.06c-.06-.28-.12-.59-.17-.94l-.25-1.52a230,230,0,0,0-5.1-26.49Q97.76,30.08,94.81,27q-4.77-5-16-5a32.44,32.44,0,0,0-10.34,1.6c-3.18,1.07-4.76,2.2-4.76,3.41,0,.76.63,1.67,1.9,2.7,1.65,1.43,2.48,2.71,2.48,3.86s-1.61,4.8-4.84,11.28S53.79,63.33,44.59,80.94l-3.94,7.39q-8.94,17-13.38,23.54l-4.76,7.38q-4.11,6.07-5.33,7.55Q15,129.1,15,130.49A2.94,2.94,0,0,0,16.43,133a6,6,0,0,0,3.44,1,26.46,26.46,0,0,0,10.9-2.59,37.59,37.59,0,0,0,10.57-7.19,47.61,47.61,0,0,0,4.34-5.34q2.72-4,5-8.13t6-11.73q3.7-7.64,7.07-15.1c.28-.6,1.26-2.78,3-6.56s3-6.56,3.79-8.36L74.1,60.9h.33q1.16,14.85,2.68,25.15a159.47,159.47,0,0,0,3.55,17.82,100.14,100.14,0,0,0,5.22,14.73,39.74,39.74,0,0,0,7.26,11.11q4.15,4.31,7.6,4.31a8.29,8.29,0,0,0,3-.7,9.66,9.66,0,0,0,3.16-2,6.91,6.91,0,0,0,.91-.9c.32-.38.54-.63.65-.74q2.88-4,12.23-23.38,3-6.08,5.13-10.42T131.44,84.88Z"/><path class="cls-1" d="M219.05,52.56h.25q3.52,0,6.89-3.24a23.08,23.08,0,0,0,5.37-8.45,30.36,30.36,0,0,0,2-11q0-4.68-1.93-6.69t-6-2a9.84,9.84,0,0,0-3.9.66,9.55,9.55,0,0,0-3,2.21,25.08,25.08,0,0,0-5.12,8.82,30,30,0,0,0-2.26,10.46Q211.34,52.32,219.05,52.56Z"/><path class="cls-1" d="M228,96.4A118.37,118.37,0,0,0,231,72q0-7.05-2.91-11.4a8.86,8.86,0,0,0-7.67-4.35,8.53,8.53,0,0,0-7.05,3.2Q207,67.09,202,84.1t-5,30.56a41.46,41.46,0,0,0,.46,6.47q14.55-8.35,28.58-16C226.71,102.17,227.41,99.26,228,96.4Z"/><path class="cls-1" d="M271,76.19a11.33,11.33,0,0,1,1.84,4.45q7-3.45,13.95-6.79c.12-1.67.2-3.34.2-5q0-13.94-7.05-13.94a5.08,5.08,0,0,0-3,.94,23.92,23.92,0,0,0-3.69,3.82A17.91,17.91,0,0,1,271,61.91q-1.23-7-7.06-7a11.3,11.3,0,0,0-7.21,2.54,27.34,27.34,0,0,0-6.16,8.65A109.26,109.26,0,0,0,245,82.58a9.54,9.54,0,0,0-.49,2l-.65,2.14q-1.28,4.59-2.3,9.93,13.92-7.4,27.63-14.24A21.8,21.8,0,0,1,271,76.19Z"/><path class="cls-1" d="M241.24,131.06q2.34,3.62,7.26,3.61,6.08,0,12.06-5.49a23.76,23.76,0,0,0,3.12-3.57,12.24,12.24,0,0,0,1.72-4.23,49.33,49.33,0,0,0,.9-6.56c.15-1.14.24-2.1.29-2.89q-13.6,7.39-26.91,15.23A12.69,12.69,0,0,0,241.24,131.06Z"/><path class="cls-1" d="M349.48,110.31l.3.3c0,.15,0,.28,0,.44Q363.93,103.9,378,97.22q.12-3.81.37-7.91c.27-2.46.41-3.58.41-3.36,0-2.3-.39-3.76-1.15-4.39s-2.63-.94-5.58-.94a19.6,19.6,0,0,0,3.36-10.26,11.19,11.19,0,0,0-2.61-7.27Q360,67.83,347.14,73.19a17.82,17.82,0,0,1,.21,2.67q0,6.15-4.59,13.12a10.67,10.67,0,0,0-1.32,3c0,1.09,1.07,1.64,3.2,1.64A36.74,36.74,0,0,0,353.17,92l1.56-.49.33.32-2.21,1.81a147.29,147.29,0,0,1-14.65,13.45q-6.51,5.08-8.9,5.09-2.79,0-4.63-3a13.82,13.82,0,0,1-1.85-7.46q0-6.81,4.47-15.5a67.84,67.84,0,0,1,3.56-6.09q-16.52,7.31-33,15.48c-.81,1.72-1.55,3.46-2.2,5.21a40.57,40.57,0,0,0-2.95,13.78q0,9.44,6,15.58a19.62,19.62,0,0,0,6.38,4.43c14.57-8,28.87-15.62,43-22.8Z"/><path class="cls-1" d="M362.28,135.33a20.27,20.27,0,0,0,9.19-2.26A38.19,38.19,0,0,0,380.9,126c-.27-.69-.51-1.38-.74-2.08q-10.56,5.41-21,11.06A12.62,12.62,0,0,0,362.28,135.33Z"/><path class="cls-1" d="M443.16,67.16c.83,0,1.32.26,1.48.75q9.6-3.9,19.32-7.69-5.37-3.47-15.55-3.48a49,49,0,0,0-21.57,5.46,80,80,0,0,0-20.51,14.48A81,81,0,0,0,395.9,88.9c13.27-6.05,26.58-11.83,40-17.41C439.06,68.62,441.48,67.16,443.16,67.16Z"/><path class="cls-1" d="M443.57,94.4a4.16,4.16,0,0,0,1.31-.17l.14.14q-9.27,6.7-13.42,10.28-9.27,7.71-11.57,7.71c-1.59,0-2.38-1.58-2.38-4.76q0-.94.09-1.95-16,7.36-31.93,15.38a17.71,17.71,0,0,0,3.83,9.3,13.29,13.29,0,0,0,10.7,4.84q6,0,14.07-4.52t22.27-15.58L438,114a8.57,8.57,0,0,0,.77-.65l2.22-1.64q-.25,4.42-.51,6.64a139,139,0,0,1-8.92,32.81,26.32,26.32,0,0,1-2.42,4.55c-.91,1.34-1.66,2-2.26,2q-1.73,0-1.72-5.57a41.69,41.69,0,0,1,1.88-11.28,47.27,47.27,0,0,1,4.35-10.71,5.83,5.83,0,0,0,1-2.21,1.41,1.41,0,0,0-1.32-1.32,8.9,8.9,0,0,0-3.52,1.15q-12.39,5.83-18.79,12.31a23.55,23.55,0,0,0-5.08,7.09,18.5,18.5,0,0,0-2,8,14.41,14.41,0,0,0,4.51,10.34,14,14,0,0,0,10.25,4.59q6.9,0,16.49-4.88a58.48,58.48,0,0,0,16.08-11.69,62.55,62.55,0,0,0,13.12-21.25,150.5,150.5,0,0,0,6.4-21.12q2.63-11.44,2.63-17.84,0-3.93-1.56-5.78a6.58,6.58,0,0,0-4.53-2q-10.94,4.27-21.93,8.92Z"/><path class="cls-1" d="M490.25,78.07a75.87,75.87,0,0,0-8.74,17.6,52.35,52.35,0,0,0-3.24,16.86q0,9.75,6.15,15.62T500.83,134a32.78,32.78,0,0,0,9.35-1.6,61.43,61.43,0,0,0,10.5-4.35,86.4,86.4,0,0,0,10.91-6.89,85,85,0,0,0,10-8.49c1.59-1.59,2.38-2.87,2.38-3.86s-.71-1.83-2.13-2.7a8.62,8.62,0,0,0-4.6-1.32q-2,0-7.71,4.19-9.84,7.22-16,7.22-5.49,0-6.39-4.93a8.36,8.36,0,0,0,3.69.91q4,0,9.39-3.12a54.5,54.5,0,0,0,10.95-8.7,49.82,49.82,0,0,0,10.3-13.86A31.88,31.88,0,0,0,545,72.66q0-7.55-3.43-12.23c-16,4.15-32.59,9.23-49.48,15.12Q491.12,76.78,490.25,78.07Zm18.09,13.74a100.77,100.77,0,0,1,5.2-13.9q5.41-11.56,8-11.57c1.26,0,1.89,1.51,1.89,4.51a55.77,55.77,0,0,1-1.07,10.42,50.72,50.72,0,0,1-2.95,10.09,39.52,39.52,0,0,1-6.73,12.22,24.18,24.18,0,0,1-5.74,5.09,26.08,26.08,0,0,1-.65-4.92A43.91,43.91,0,0,1,508.34,91.81Z"/><path class="cls-1" d="M240.34,103.63q.56-3.61,1.19-6.93-7.74,4.11-15.59,8.4-2.59,9.93-6.34,20.38-2.13,6.08-5.25,8.21a9.35,9.35,0,0,1-5,1.31h-.17a10.19,10.19,0,0,1-6.72-3.36,19.55,19.55,0,0,1-4.3-7.1,22.5,22.5,0,0,1-.81-3.41c-21,12.06-42.93,25.2-66.4,39.72a15.71,15.71,0,0,0-6,20l.63,1.33a15.66,15.66,0,0,0,23.76,5.75,870.39,870.39,0,0,1,90.29-60.78,33.22,33.22,0,0,1-.78-7.74A107.2,107.2,0,0,1,240.34,103.63Z"/><path class="cls-1" d="M343.41,66.51q-1.31,0-4,2.78a84.13,84.13,0,0,0-8.54,10.9q8.14-3.61,16.29-7a15.09,15.09,0,0,0-1-3.77C345.3,67.48,344.4,66.51,343.41,66.51Z"/><path class="cls-1" d="M325.45,64.13q13.46-8.94,25.92-8.94,10.5,0,17.27,4.3a17.06,17.06,0,0,1,4.15,3.6c32.3-12,63.82-20.91,92.91-25.6a15.66,15.66,0,0,0,11.62-22.13h0a15.69,15.69,0,0,0-19-8.27c-65.85,21.1-118.94,41.58-171.55,66.76a65.07,65.07,0,0,1-1.44,9.72,44.86,44.86,0,0,1-4.14,11.65q-2.51,4.52-5,4.51-2.72,0-2.71-10.26a45.79,45.79,0,0,0-.61-8.49l-.09-.34-3.66,1.82a121.52,121.52,0,0,0-1.38,14.73q-.57,9.51-.82,12l-.33,1.64c0,.32,0,.71,0,1.13q15.51-8.45,31.28-16.26a75.47,75.47,0,0,1,5.92-10.38A79.67,79.67,0,0,1,325.45,64.13Z"/><path class="cls-1" d="M391.28,96.49a73.88,73.88,0,0,1,4.62-7.59q-9,4.08-17.91,8.32-.12,3.77-.12,7.27c0,2.46,0,4.32.08,5.57s.16,2.71.33,4.35.32,3,.49,3.94a36.34,36.34,0,0,0,1.39,5.55q2.82-1.44,5.65-2.87a28.53,28.53,0,0,1-.23-3.66Q385.58,107.28,391.28,96.49Z"/><path class="cls-1" d="M349.65,114.17c0-1.25,0-2.28.09-3.12l-1.61.82A148.3,148.3,0,0,1,335.5,125a62.19,62.19,0,0,1-11.73,8.58,21.32,21.32,0,0,1-9.89,2.87,21.88,21.88,0,0,1-8.79-1.73C282.25,147.27,258.76,161,234,176.22a15.68,15.68,0,0,0-6,20l.64,1.37a15.68,15.68,0,0,0,23.73,5.78c31.27-23.92,68-47.33,106.8-68.44Q349.65,132.56,349.65,114.17Z"/><path class="cls-1" d="M594.08,29.62h0a15.68,15.68,0,0,0-19-8.27C535.19,34.07,498.81,46.66,464,60.22l.08.05q5.37,3.52,5.37,10.58,0,5.91-4.67,14.61l.39.05q13.55-5.3,26.92-10a58.61,58.61,0,0,1,14.11-13.47q11.65-7.71,22.31-7.71,7.71,0,12.1,4.88a13.72,13.72,0,0,1,1,1.18c14.15-3.66,27.85-6.59,40.91-8.68A15.67,15.67,0,0,0,594.08,29.62Z"/><path class="cls-1" d="M433.32,74.05a63.06,63.06,0,0,0-7.88,10.5,61.41,61.41,0,0,0-5.74,12.14,37.2,37.2,0,0,0-2,9q12.72-5.84,25.46-11.22c-1,.09-2.16.13-3.57.13-2.78,0-4.18-.52-4.18-1.56a3.25,3.25,0,0,1,1.07-2,30.85,30.85,0,0,0,5.37-9.27,33.65,33.65,0,0,0,2.5-10.41,11.59,11.59,0,0,1,.17-2.06c.05-.21.09-.41.12-.57a2.25,2.25,0,0,0,0-.41,1.24,1.24,0,0,0-.08-.4q-4.35,1.77-8.7,3.58C435.12,72.25,434.25,73.09,433.32,74.05Z"/></svg>